STARTFONT 2.1
COMMENT
COMMENT Shinonome 14dot font for ISO 8859-1
COMMENT
COMMENT The original is 7x14-ISO8859-1.bdf. (Public Domain)
COMMENT
COMMENT Modified and Maintained by /efont/.
COMMENT
COMMENT (c) /efont/ -- Efont Open Laboratory 2001
COMMENT http://openlab.ring.gr.jp/efont/
COMMENT
FONT -Shinonome-Gothic-Bold-I-Normal--14-130-75-75-C-70-ISO8859-1
SIZE 14 75 75
FONTBOUNDINGBOX 11 14 -2 -2
STARTPROPERTIES 24
FONTNAME_REGISTRY ""
FOUNDRY "Shinonome"
FAMILY_NAME "Gothic"
WEIGHT_NAME "Bold"
SLANT "I"
SETWIDTH_NAME "Normal"
ADD_STYLE_NAME ""
PIXEL_SIZE 14
POINT_SIZE 130
RESOLUTION_X 75
RESOLUTION_Y 75
SPACING "C"
AVERAGE_WIDTH 70
CHARSET_REGISTRY "ISO8859"
CHARSET_ENCODING "1"
COPYRIGHT "Public domain font. Share and enjoy."
CAP_HEIGHT 10
X_HEIGHT 7
WEIGHT 10
QUAD_WIDTH 7
DEFAULT_CHAR 0
FONT_DESCENT 2
FONT_ASCENT 12
_XMBDFED_INFO "Edited with xmbdfed 4.4."
ENDPROPERTIES
CHARS 221
STARTCHAR    1
ENCODING 1
SWIDTH 960 0
DWIDTH 7 0
BBX 11 14 -2 -2
BITMAP
0000
0000
0380
0700
0f80
0f80
3f80
3f80
1f00
3e00
1c00
1c00
0000
0000
ENDCHAR
STARTCHAR    2
ENCODING 2
SWIDTH 960 0
DWIDTH 7 0
BBX 11 14 -2 -2
BITMAP
06a0
0d50
0ea0
1aa0
0d40
1ea0
1a80
3540
3a80
6a80
3500
7a80
6a00
d500
ENDCHAR
STARTCHAR    3
ENCODING 3
SWIDTH 960 0
DWIDTH 7 0
BBX 11 14 -2 -2
BITMAP
0000
0d80
0d80
1f00
1b00
1b00
0000
1f80
0600
0c00
0c00
0c00
0000
0000
ENDCHAR
STARTCHAR    4
ENCODING 4
SWIDTH 960 0
DWIDTH 7 0
BBX 11 14 -2 -2
BITMAP
0000
0f00
0c00
1800
1e00
1800
3780
3600
0600
0f00
0c00
0c00
1800
0000
ENDCHAR
STARTCHAR    5
ENCODING 5
SWIDTH 960 0
DWIDTH 7 0
BBX 11 14 -2 -2
BITMAP
0000
0780
0c00
1800
1800
0f00
0000
0e00
0d00
1b00
1c00
1a00
3600
0000
ENDCHAR
STARTCHAR    6
ENCODING 6
SWIDTH 960 0
DWIDTH 7 0
BBX 11 14 -2 -2
BITMAP
0000
0c00
0c00
1800
1800
1f00
0000
0f80
0c00
1e00
1800
1800
0000
0000
ENDCHAR
STARTCHAR    7
ENCODING 7
SWIDTH 960 0
DWIDTH 7 0
BBX 11 14 -2 -2
BITMAP
0000
0300
0680
0680
0300
0000
0000
0000
0000
0000
0000
0000
0000
0000
ENDCHAR
STARTCHAR    8
ENCODING 8
SWIDTH 960 0
DWIDTH 7 0
BBX 11 14 -2 -2
BITMAP
0000
0000
0000
0000
0000
0000
0600
0600
1f80
0c00
0c00
3f00
0000
0000
ENDCHAR
STARTCHAR    9
ENCODING 9
SWIDTH 960 0
DWIDTH 7 0
BBX 11 14 -2 -2
BITMAP
0000
0000
0d80
1d00
1b00
1a00
3600
0c00
0c00
1800
1800
1f00
0000
0000
ENDCHAR
STARTCHAR    a
ENCODING 10
SWIDTH 960 0
DWIDTH 7 0
BBX 11 14 -2 -2
BITMAP
0000
0cc0
0cc0
0d80
0d00
0600
0000
1f80
0600
0c00
0c00
0c00
1800
0000
ENDCHAR
STARTCHAR    b
ENCODING 11
SWIDTH 960 0
DWIDTH 7 0
BBX 11 14 -2 -2
BITMAP
0180
0180
0180
0300
0300
0300
0600
3e00
0000
0000
0000
0000
0000
0000
ENDCHAR
STARTCHAR    c
ENCODING 12
SWIDTH 960 0
DWIDTH 7 0
BBX 11 14 -2 -2
BITMAP
0000
0000
0000
0000
0000
0000
0000
3e00
0600
0c00
0c00
0c00
1800
1800
ENDCHAR
STARTCHAR    d
ENCODING 13
SWIDTH 960 0
DWIDTH 7 0
BBX 11 14 -2 -2
BITMAP
0000
0000
0000
0000
0000
0000
0000
07c0
0600
0c00
0c00
0c00
1800
1800
ENDCHAR
STARTCHAR    e
ENCODING 14
SWIDTH 960 0
DWIDTH 7 0
BBX 11 14 -2 -2
BITMAP
0180
0180
0180
0300
0300
0300
0600
07c0
0000
0000
0000
0000
0000
0000
ENDCHAR
STARTCHAR    f
ENCODING 15
SWIDTH 960 0
DWIDTH 7 0
BBX 11 14 -2 -2
BITMAP
0180
0180
0180
0300
0300
0300
0600
3fc0
0600
0c00
0c00
0c00
1800
1800
ENDCHAR
STARTCHAR 0x10
ENCODING 16
SWIDTH 960 0
DWIDTH 7 0
BBX 11 14 -2 -2
BITMAP
0000
0ff0
0000
0000
0000
0000
0000
0000
0000
0000
0000
0000
0000
0000
ENDCHAR
STARTCHAR 0x11
ENCODING 17
SWIDTH 960 0
DWIDTH 7 0
BBX 11 14 -2 -2
BITMAP
0000
0000
0000
0000
1fe0
0000
0000
0000
0000
0000
0000
0000
0000
0000
ENDCHAR
STARTCHAR   12
ENCODING 18
SWIDTH 960 0
DWIDTH 7 0
BBX 11 14 -2 -2
BITMAP
0000
0000
0000
0000
0000
0000
0000
3fc0
0000
0000
0000
0000
0000
0000
ENDCHAR
STARTCHAR 0x13
ENCODING 19
SWIDTH 960 0
DWIDTH 7 0
BBX 11 14 -2 -2
BITMAP
0000
0000
0000
0000
0000
0000
0000
0000
0000
0000
7f80
0000
0000
0000
ENDCHAR
STARTCHAR 0x14
ENCODING 20
SWIDTH 960 0
DWIDTH 7 0
BBX 11 14 -2 -2
BITMAP
0000
0000
0000
0000
0000
0000
0000
0000
0000
0000
0000
0000
0000
ff00
ENDCHAR
STARTCHAR   15
ENCODING 21
SWIDTH 960 0
DWIDTH 7 0
BBX 11 14 -2 -2
BITMAP
0180
0180
0180
0300
0300
0300
0600
07c0
0600
0c00
0c00
0c00
1800
1800
ENDCHAR
STARTCHAR   16
ENCODING 22
SWIDTH 960 0
DWIDTH 7 0
BBX 11 14 -2 -2
BITMAP
0180
0180
0180
0300
0300
0300
0600
3e00
0600
0c00
0c00
0c00
1800
1800
ENDCHAR
STARTCHAR   17
ENCODING 23
SWIDTH 960 0
DWIDTH 7 0
BBX 11 14 -2 -2
BITMAP
0180
0180
0180
0300
0300
0300
0600
3fc0
0000
0000
0000
0000
0000
0000
ENDCHAR
STARTCHAR   18
ENCODING 24
SWIDTH 960 0
DWIDTH 7 0
BBX 11 14 -2 -2
BITMAP
0000
0000
0000
0000
0000
0000
0000
3fc0
0600
0c00
0c00
0c00
1800
1800
ENDCHAR
STARTCHAR   19
ENCODING 25
SWIDTH 960 0
DWIDTH 7 0
BBX 11 14 -2 -2
BITMAP
0180
0180
0180
0300
0300
0300
0600
0600
0600
0c00
0c00
0c00
1800
1800
ENDCHAR
STARTCHAR   1a
ENCODING 26
SWIDTH 960 0
DWIDTH 7 0
BBX 11 14 -2 -2
BITMAP
0000
0000
0000
0000
01c0
0f00
3800
0e00
0380
0000
7f00
0000
0000
0000
ENDCHAR
STARTCHAR   1b
ENCODING 27
SWIDTH 960 0
DWIDTH 7 0
BBX 11 14 -2 -2
BITMAP
0000
0000
0000
0000
1c00
0600
0380
0e00
3800
0000
7f00
0000
0000
0000
ENDCHAR
STARTCHAR   1c
ENCODING 28
SWIDTH 960 0
DWIDTH 7 0
BBX 11 14 -2 -2
BITMAP
0000
0000
0000
0000
0000
1fc0
1b00
1b00
1b00
3600
3600
6600
0000
0000
ENDCHAR
STARTCHAR   1d
ENCODING 29
SWIDTH 960 0
DWIDTH 7 0
BBX 11 14 -2 -2
BITMAP
0000
0000
0000
0180
0180
1fc0
0600
0600
3f80
1800
1800
0000
0000
0000
ENDCHAR
STARTCHAR   1e
ENCODING 30
SWIDTH 960 0
DWIDTH 7 0
BBX 11 14 -2 -2
BITMAP
0000
0000
0000
0380
06c0
0600
0c00
1f00
0c00
1800
3e00
3b00
0000
0000
ENDCHAR
STARTCHAR   1f
ENCODING 31
SWIDTH 960 0
DWIDTH 7 0
BBX 11 14 -2 -2
BITMAP
0000
0000
0000
0000
0000
0000
0e00
0e00
0000
0000
0000
0000
0000
0000
ENDCHAR
STARTCHAR   20
ENCODING 32
SWIDTH 960 0
DWIDTH 7 0
BBX 11 14 -2 -2
BITMAP
0000
0000
0000
0000
0000
0000
0000
0000
0000
0000
0000
0000
0000
0000
ENDCHAR
STARTCHAR   21
ENCODING 33
SWIDTH 960 0
DWIDTH 7 0
BBX 11 14 -2 -2
BITMAP
0000
0000
0180
0300
0300
0300
0600
0600
0600
0000
0c00
0c00
0000
0000
ENDCHAR
STARTCHAR   22
ENCODING 34
SWIDTH 960 0
DWIDTH 7 0
BBX 11 14 -2 -2
BITMAP
0000
0760
0360
06c0
0d80
0000
0000
0000
0000
0000
0000
0000
0000
0000
ENDCHAR
STARTCHAR   23
ENCODING 35
SWIDTH 960 0
DWIDTH 7 0
BBX 11 14 -2 -2
BITMAP
0000
0000
0340
0680
0680
0fc0
0d00
0d00
1f80
1a00
1a00
1a00
0000
0000
ENDCHAR
STARTCHAR   24
ENCODING 36
SWIDTH 960 0
DWIDTH 7 0
BBX 11 14 -2 -2
BITMAP
0000
0000
0180
0f80
1b40
1b40
1a00
0f00
0700
6d00
6d00
3e00
1800
0000
ENDCHAR
STARTCHAR   25
ENCODING 37
SWIDTH 960 0
DWIDTH 7 0
BBX 11 14 -2 -2
BITMAP
0000
0000
0760
0d40
1b80
0f00
0600
0c00
0e00
3b00
6b00
6e00
0000
0000
ENDCHAR
STARTCHAR   26
ENCODING 38
SWIDTH 960 0
DWIDTH 7 0
BBX 11 14 -2 -2
BITMAP
0000
0000
0380
0680
0d80
0d00
0e00
1d80
3700
6300
6e00
3b00
0000
0000
ENDCHAR
STARTCHAR   27
ENCODING 39
SWIDTH 960 0
DWIDTH 7 0
BBX 11 14 -2 -2
BITMAP
0000
0380
0180
0300
0600
0000
0000
0000
0000
0000
0000
0000
0000
0000
ENDCHAR
STARTCHAR   28
ENCODING 40
SWIDTH 960 0
DWIDTH 7 0
BBX 11 14 -2 -2
BITMAP
0000
0060
00c0
0180
0300
0600
0c00
0c00
0c00
0c00
0c00
0c00
0c00
0600
ENDCHAR
STARTCHAR   29
ENCODING 41
SWIDTH 960 0
DWIDTH 7 0
BBX 11 14 -2 -2
BITMAP
0000
0600
0300
0300
0300
0300
0300
0300
0600
0600
0c00
1800
3000
6000
ENDCHAR
STARTCHAR   2a
ENCODING 42
SWIDTH 960 0
DWIDTH 7 0
BBX 11 14 -2 -2
BITMAP
0000
0000
0000
0000
0300
0dc0
0f00
0600
1f00
3500
0c00
0000
0000
0000
ENDCHAR
STARTCHAR   2b
ENCODING 43
SWIDTH 960 0
DWIDTH 7 0
BBX 11 14 -2 -2
BITMAP
0000
0000
0000
0000
0300
0300
0600
1f80
0600
0c00
0c00
0000
0000
0000
ENDCHAR
STARTCHAR   2c
ENCODING 44
SWIDTH 960 0
DWIDTH 7 0
BBX 11 14 -2 -2
BITMAP
0000
0000
0000
0000
0000
0000
0000
0000
0000
0000
1c00
0c00
1800
3000
ENDCHAR
STARTCHAR   2d
ENCODING 45
SWIDTH 960 0
DWIDTH 7 0
BBX 11 14 -2 -2
BITMAP
0000
0000
0000
0000
0000
0000
0000
1f80
0000
0000
0000
0000
0000
0000
ENDCHAR
STARTCHAR   2e
ENCODING 46
SWIDTH 960 0
DWIDTH 7 0
BBX 11 14 -2 -2
BITMAP
0000
0000
0000
0000
0000
0000
0000
0000
0000
0000
1c00
1c00
0000
0000
ENDCHAR
STARTCHAR   2f
ENCODING 47
SWIDTH 960 0
DWIDTH 7 0
BBX 11 14 -2 -2
BITMAP
0000
0060
00c0
00c0
0180
0300
0600
0600
0c00
1800
3000
6000
6000
c000
ENDCHAR
STARTCHAR   30
ENCODING 48
SWIDTH 960 0
DWIDTH 7 0
BBX 11 14 -2 -2
BITMAP
0000
0000
0700
0d80
18c0
18c0
3180
3180
3180
3300
3600
1c00
0000
0000
ENDCHAR
STARTCHAR   31
ENCODING 49
SWIDTH 960 0
DWIDTH 7 0
BBX 11 14 -2 -2
BITMAP
0000
0000
0180
0700
0d00
0300
0600
0600
0600
0c00
0c00
3f00
0000
0000
ENDCHAR
STARTCHAR   32
ENCODING 50
SWIDTH 960 0
DWIDTH 7 0
BBX 11 14 -2 -2
BITMAP
0000
0000
0780
0cc0
18c0
0180
0180
0300
0e00
1800
3000
7f00
0000
0000
ENDCHAR
STARTCHAR   33
ENCODING 51
SWIDTH 960 0
DWIDTH 7 0
BBX 11 14 -2 -2
BITMAP
0000
0000
0fe0
00c0
0180
0700
0d00
0180
0180
6300
6300
3e00
0000
0000
ENDCHAR
STARTCHAR   34
ENCODING 52
SWIDTH 960 0
DWIDTH 7 0
BBX 11 14 -2 -2
BITMAP
0000
0000
00c0
0380
0680
0d80
0d00
1b00
3300
7f00
0600
0600
0000
0000
ENDCHAR
STARTCHAR   35
ENCODING 53
SWIDTH 960 0
DWIDTH 7 0
BBX 11 14 -2 -2
BITMAP
0000
0000
0fe0
1800
1800
1f00
3180
0180
0180
6300
6300
3e00
0000
0000
ENDCHAR
STARTCHAR   36
ENCODING 54
SWIDTH 960 0
DWIDTH 7 0
BBX 11 14 -2 -2
BITMAP
0000
0000
07c0
0c00
1800
1800
3700
3980
3180
6300
6300
3e00
0000
0000
ENDCHAR
STARTCHAR   37
ENCODING 55
SWIDTH 960 0
DWIDTH 7 0
BBX 11 14 -2 -2
BITMAP
0000
0000
0fe0
00c0
0180
0300
0300
0600
0c00
1800
3000
3000
0000
0000
ENDCHAR
STARTCHAR   38
ENCODING 56
SWIDTH 960 0
DWIDTH 7 0
BBX 11 14 -2 -2
BITMAP
0000
0000
0780
0cc0
18c0
0d80
0e00
1b00
3300
6300
6300
3e00
0000
0000
ENDCHAR
STARTCHAR   39
ENCODING 57
SWIDTH 960 0
DWIDTH 7 0
BBX 11 14 -2 -2
BITMAP
0000
0000
0780
0cc0
18c0
18c0
1b80
0e80
0180
6300
6600
3c00
0000
0000
ENDCHAR
STARTCHAR   3a
ENCODING 58
SWIDTH 960 0
DWIDTH 7 0
BBX 11 14 -2 -2
BITMAP
0000
0000
0000
0000
0000
0700
0e00
0000
0000
1c00
1c00
0000
0000
0000
ENDCHAR
STARTCHAR   3b
ENCODING 59
SWIDTH 960 0
DWIDTH 7 0
BBX 11 14 -2 -2
BITMAP
0000
0000
0000
0000
0000
0700
0e00
0000
0000
1c00
0c00
1800
3000
0000
ENDCHAR
STARTCHAR   3c
ENCODING 60
SWIDTH 960 0
DWIDTH 7 0
BBX 11 14 -2 -2
BITMAP
0000
0000
0000
00c0
0180
0700
0c00
1800
0c00
0c00
0600
0300
0000
0000
ENDCHAR
STARTCHAR   3d
ENCODING 61
SWIDTH 960 0
DWIDTH 7 0
BBX 11 14 -2 -2
BITMAP
0000
0000
0000
0000
0000
1fc0
0000
0000
3f80
0000
0000
0000
0000
0000
ENDCHAR
STARTCHAR   3e
ENCODING 62
SWIDTH 960 0
DWIDTH 7 0
BBX 11 14 -2 -2
BITMAP
0000
0000
0000
0c00
0600
0300
0300
0180
0700
0c00
1800
3000
0000
0000
ENDCHAR
STARTCHAR   3f
ENCODING 63
SWIDTH 960 0
DWIDTH 7 0
BBX 11 14 -2 -2
BITMAP
0000
0000
0780
0cc0
18c0
0180
0300
0600
0600
0000
0c00
0c00
0000
0000
ENDCHAR
STARTCHAR   40
ENCODING 64
SWIDTH 960 0
DWIDTH 7 0
BBX 11 14 -2 -2
BITMAP
0000
0000
0780
0cc0
1bc0
1ac0
3580
3580
3580
3700
3000
1f00
0000
0000
ENDCHAR
STARTCHAR   41
ENCODING 65
SWIDTH 960 0
DWIDTH 7 0
BBX 11 14 -2 -2
BITMAP
0000
0000
0680
0700
0d80
0d80
1b00
1f00
3300
6300
6300
6300
0000
0000
ENDCHAR
STARTCHAR   42
ENCODING 66
SWIDTH 960 0
DWIDTH 7 0
BBX 11 14 -2 -2
BITMAP
0000
0000
0f00
1980
1980
1b00
3e00
3300
3300
6300
6600
7c00
0000
0000
ENDCHAR
STARTCHAR   43
ENCODING 67
SWIDTH 960 0
DWIDTH 7 0
BBX 11 14 -2 -2
BITMAP
0000
0000
0780
0cc0
18c0
1800
3000
3000
3000
3300
3300
1e00
0000
0000
ENDCHAR
STARTCHAR   44
ENCODING 68
SWIDTH 960 0
DWIDTH 7 0
BBX 11 14 -2 -2
BITMAP
0000
0000
0f00
1980
18c0
18c0
3180
3180
3180
6300
6600
7c00
0000
0000
ENDCHAR
STARTCHAR   45
ENCODING 69
SWIDTH 960 0
DWIDTH 7 0
BBX 11 14 -2 -2
BITMAP
0000
0000
0fe0
1800
1800
1800
3e00
3000
3000
6000
6000
7f00
0000
0000
ENDCHAR
STARTCHAR   46
ENCODING 70
SWIDTH 960 0
DWIDTH 7 0
BBX 11 14 -2 -2
BITMAP
0000
0000
0fe0
1800
1800
1800
3e00
3000
3000
6000
6000
6000
0000
0000
ENDCHAR
STARTCHAR   47
ENCODING 71
SWIDTH 960 0
DWIDTH 7 0
BBX 11 14 -2 -2
BITMAP
0000
0000
0780
0cc0
18c0
1800
3000
3780
3180
3300
3700
1d00
0000
0000
ENDCHAR
STARTCHAR   48
ENCODING 72
SWIDTH 960 0
DWIDTH 7 0
BBX 11 14 -2 -2
BITMAP
0000
0000
0c60
18c0
18c0
18c0
3f80
3180
3180
6300
6300
6300
0000
0000
ENDCHAR
STARTCHAR   49
ENCODING 73
SWIDTH 960 0
DWIDTH 7 0
BBX 11 14 -2 -2
BITMAP
0000
0000
03c0
0300
0300
0300
0600
0600
0600
0c00
0c00
1e00
0000
0000
ENDCHAR
STARTCHAR   4a
ENCODING 74
SWIDTH 960 0
DWIDTH 7 0
BBX 11 14 -2 -2
BITMAP
0000
0000
00c0
0180
0180
0180
0300
0300
0300
6600
6600
3c00
0000
0000
ENDCHAR
STARTCHAR   4b
ENCODING 75
SWIDTH 960 0
DWIDTH 7 0
BBX 11 14 -2 -2
BITMAP
0000
0000
0ce0
1980
1b00
1a00
3400
3a00
3600
6600
6600
6300
0000
0000
ENDCHAR
STARTCHAR   4c
ENCODING 76
SWIDTH 960 0
DWIDTH 7 0
BBX 11 14 -2 -2
BITMAP
0000
0000
0c00
1800
1800
1800
3000
3000
3000
6000
6000
7f00
0000
0000
ENDCHAR
STARTCHAR   4d
ENCODING 77
SWIDTH 960 0
DWIDTH 7 0
BBX 11 14 -2 -2
BITMAP
0000
0000
0c60
1dc0
1dc0
1d40
3680
3180
3180
6300
6300
6300
0000
0000
ENDCHAR
STARTCHAR   4e
ENCODING 78
SWIDTH 960 0
DWIDTH 7 0
BBX 11 14 -2 -2
BITMAP
0000
0000
0c60
18c0
1cc0
1cc0
3580
3680
3780
6700
6300
6300
0000
0000
ENDCHAR
STARTCHAR   4f
ENCODING 79
SWIDTH 960 0
DWIDTH 7 0
BBX 11 14 -2 -2
BITMAP
0000
0000
0780
0cc0
18c0
18c0
3180
3180
3180
6300
6300
3e00
0000
0000
ENDCHAR
STARTCHAR   50
ENCODING 80
SWIDTH 960 0
DWIDTH 7 0
BBX 11 14 -2 -2
BITMAP
0000
0000
0f80
18c0
18c0
18c0
3180
3f00
3000
6000
6000
6000
0000
0000
ENDCHAR
STARTCHAR   51
ENCODING 81
SWIDTH 960 0
DWIDTH 7 0
BBX 11 14 -2 -2
BITMAP
0000
0000
0780
0cc0
18c0
18c0
3180
3180
3980
6d00
6700
3e00
0c00
0600
ENDCHAR
STARTCHAR   52
ENCODING 82
SWIDTH 960 0
DWIDTH 7 0
BBX 11 14 -2 -2
BITMAP
0000
0000
0f80
18c0
18c0
18c0
3180
3f00
3600
6600
6300
6300
0000
0000
ENDCHAR
STARTCHAR   53
ENCODING 83
SWIDTH 960 0
DWIDTH 7 0
BBX 11 14 -2 -2
BITMAP
0000
0000
0780
0cc0
18c0
1800
0c00
0600
0300
6300
6300
3e00
0000
0000
ENDCHAR
STARTCHAR   54
ENCODING 84
SWIDTH 960 0
DWIDTH 7 0
BBX 11 14 -2 -2
BITMAP
0000
0000
0ff0
0300
0300
0300
0600
0600
0600
0c00
0c00
0c00
0000
0000
ENDCHAR
STARTCHAR   55
ENCODING 85
SWIDTH 960 0
DWIDTH 7 0
BBX 11 14 -2 -2
BITMAP
0000
0000
0c60
18c0
18c0
18c0
3180
3180
3180
6300
6300
3e00
0000
0000
ENDCHAR
STARTCHAR   56
ENCODING 86
SWIDTH 960 0
DWIDTH 7 0
BBX 11 14 -2 -2
BITMAP
0000
0000
0c60
18c0
18c0
1980
1980
1b00
1a00
1a00
1c00
1c00
0000
0000
ENDCHAR
STARTCHAR   57
ENCODING 87
SWIDTH 960 0
DWIDTH 7 0
BBX 11 14 -2 -2
BITMAP
0000
0000
0660
0cc0
0cc0
0d40
1a80
1a80
1b00
1d00
1a00
1a00
0000
0000
ENDCHAR
STARTCHAR   58
ENCODING 88
SWIDTH 960 0
DWIDTH 7 0
BBX 11 14 -2 -2
BITMAP
0000
0000
0cc0
0cc0
0d80
0d00
0d00
0e00
1a00
3600
6300
6300
0000
0000
ENDCHAR
STARTCHAR   59
ENCODING 89
SWIDTH 960 0
DWIDTH 7 0
BBX 11 14 -2 -2
BITMAP
0000
0000
0660
0cc0
0cc0
0d80
0d00
0600
0600
0c00
0c00
0c00
0000
0000
ENDCHAR
STARTCHAR   5a
ENCODING 90
SWIDTH 960 0
DWIDTH 7 0
BBX 11 14 -2 -2
BITMAP
0000
0000
0fe0
00c0
0180
0300
0600
0c00
1800
3000
6000
7f00
0000
0000
ENDCHAR
STARTCHAR   5b
ENCODING 91
SWIDTH 960 0
DWIDTH 7 0
BBX 11 14 -2 -2
BITMAP
0000
03e0
0300
0600
0600
0600
0c00
0c00
0c00
1800
1800
1800
3000
3e00
ENDCHAR
STARTCHAR   5c
ENCODING 92
SWIDTH 960 0
DWIDTH 7 0
BBX 11 14 -2 -2
BITMAP
0000
0c00
0c00
0c00
0c00
0c00
0c00
0c00
0c00
0c00
0600
0600
0600
0600
ENDCHAR
STARTCHAR   5d
ENCODING 93
SWIDTH 960 0
DWIDTH 7 0
BBX 11 14 -2 -2
BITMAP
0000
07c0
00c0
0180
0180
0180
0300
0300
0300
0600
0600
0600
0c00
7c00
ENDCHAR
STARTCHAR   5e
ENCODING 94
SWIDTH 960 0
DWIDTH 7 0
BBX 11 14 -2 -2
BITMAP
0000
0380
0ec0
18c0
0000
0000
0000
0000
0000
0000
0000
0000
0000
0000
ENDCHAR
STARTCHAR   5f
ENCODING 95
SWIDTH 960 0
DWIDTH 7 0
BBX 11 14 -2 -2
BITMAP
0000
0000
0000
0000
0000
0000
0000
0000
0000
0000
0000
0000
0000
fe00
ENDCHAR
STARTCHAR   60
ENCODING 96
SWIDTH 960 0
DWIDTH 7 0
BBX 11 14 -2 -2
BITMAP
0000
0380
0300
0300
0300
0000
0000
0000
0000
0000
0000
0000
0000
0000
ENDCHAR
STARTCHAR   61
ENCODING 97
SWIDTH 960 0
DWIDTH 7 0
BBX 11 14 -2 -2
BITMAP
0000
0000
0000
0000
0000
1f00
3180
0180
1f80
3300
6300
3f00
0000
0000
ENDCHAR
STARTCHAR   62
ENCODING 98
SWIDTH 960 0
DWIDTH 7 0
BBX 11 14 -2 -2
BITMAP
0000
0000
0c00
1800
1800
1f00
3980
3180
3180
6300
7300
6e00
0000
0000
ENDCHAR
STARTCHAR   63
ENCODING 99
SWIDTH 960 0
DWIDTH 7 0
BBX 11 14 -2 -2
BITMAP
0000
0000
0000
0000
0000
0f00
1980
3000
3000
6000
6300
3e00
0000
0000
ENDCHAR
STARTCHAR   64
ENCODING 100
SWIDTH 960 0
DWIDTH 7 0
BBX 11 14 -2 -2
BITMAP
0000
0000
0060
00c0
00c0
0ec0
1b80
3180
3180
6300
6700
3d00
0000
0000
ENDCHAR
STARTCHAR   65
ENCODING 101
SWIDTH 960 0
DWIDTH 7 0
BBX 11 14 -2 -2
BITMAP
0000
0000
0000
0000
0000
0f00
1980
3180
3f80
6000
6300
3e00
0000
0000
ENDCHAR
STARTCHAR   66
ENCODING 102
SWIDTH 960 0
DWIDTH 7 0
BBX 11 14 -2 -2
BITMAP
0000
0000
01c0
0340
0600
0600
3f00
0c00
0c00
1800
1800
1800
0000
0000
ENDCHAR
STARTCHAR   67
ENCODING 103
SWIDTH 960 0
DWIDTH 7 0
BBX 11 14 -2 -2
BITMAP
0000
0000
0000
0000
0000
0ec0
1b00
3300
3600
3c00
3000
6c00
6600
3c00
ENDCHAR
STARTCHAR   68
ENCODING 104
SWIDTH 960 0
DWIDTH 7 0
BBX 11 14 -2 -2
BITMAP
0000
0000
0c00
1800
1800
1f00
3980
3180
3180
6300
6300
6300
0000
0000
ENDCHAR
STARTCHAR   69
ENCODING 105
SWIDTH 960 0
DWIDTH 7 0
BBX 11 14 -2 -2
BITMAP
0000
0000
0180
0300
0000
0700
0600
0600
0600
0c00
0c00
0c00
0000
0000
ENDCHAR
STARTCHAR   6a
ENCODING 106
SWIDTH 960 0
DWIDTH 7 0
BBX 11 14 -2 -2
BITMAP
0000
0000
00c0
0180
0000
0380
0300
0300
0300
0600
0600
0c00
1800
7000
ENDCHAR
STARTCHAR   6b
ENCODING 107
SWIDTH 960 0
DWIDTH 7 0
BBX 11 14 -2 -2
BITMAP
0000
0000
0c00
1800
1800
1b80
3600
3400
3c00
6c00
6600
6300
0000
0000
ENDCHAR
STARTCHAR   6c
ENCODING 108
SWIDTH 960 0
DWIDTH 7 0
BBX 11 14 -2 -2
BITMAP
0000
0000
0380
0300
0300
0300
0600
0600
0600
0c00
0c00
0c00
0000
0000
ENDCHAR
STARTCHAR   6d
ENCODING 109
SWIDTH 960 0
DWIDTH 7 0
BBX 11 14 -2 -2
BITMAP
0000
0000
0000
0000
0000
0f80
1a80
1a80
1a80
3500
3500
3300
0000
0000
ENDCHAR
STARTCHAR   6e
ENCODING 110
SWIDTH 960 0
DWIDTH 7 0
BBX 11 14 -2 -2
BITMAP
0000
0000
0000
0000
0000
1f00
3980
3180
3180
6300
6300
6300
0000
0000
ENDCHAR
STARTCHAR   6f
ENCODING 111
SWIDTH 960 0
DWIDTH 7 0
BBX 11 14 -2 -2
BITMAP
0000
0000
0000
0000
0000
0f00
1980
3180
3180
6300
6300
3e00
0000
0000
ENDCHAR
STARTCHAR   70
ENCODING 112
SWIDTH 960 0
DWIDTH 7 0
BBX 11 14 -2 -2
BITMAP
0000
0000
0000
0000
0000
1f00
3980
3180
3180
6300
7300
6e00
c000
c000
ENDCHAR
STARTCHAR   71
ENCODING 113
SWIDTH 960 0
DWIDTH 7 0
BBX 11 14 -2 -2
BITMAP
0000
0000
0000
0000
0000
0ec0
1b80
3180
3180
6300
6700
3d00
0600
0600
ENDCHAR
STARTCHAR   72
ENCODING 114
SWIDTH 960 0
DWIDTH 7 0
BBX 11 14 -2 -2
BITMAP
0000
0000
0000
0000
0000
1f00
3980
3180
3000
6000
6000
6000
0000
0000
ENDCHAR
STARTCHAR   73
ENCODING 115
SWIDTH 960 0
DWIDTH 7 0
BBX 11 14 -2 -2
BITMAP
0000
0000
0000
0000
0000
1f00
3180
1800
0c00
0600
6300
3e00
0000
0000
ENDCHAR
STARTCHAR   74
ENCODING 116
SWIDTH 960 0
DWIDTH 7 0
BBX 11 14 -2 -2
BITMAP
0000
0000
0300
0600
0600
1f80
0c00
0c00
0c00
1800
1b00
0e00
0000
0000
ENDCHAR
STARTCHAR   75
ENCODING 117
SWIDTH 960 0
DWIDTH 7 0
BBX 11 14 -2 -2
BITMAP
0000
0000
0000
0000
0000
18c0
3180
3180
3180
6300
6700
3d00
0000
0000
ENDCHAR
STARTCHAR   76
ENCODING 118
SWIDTH 960 0
DWIDTH 7 0
BBX 11 14 -2 -2
BITMAP
0000
0000
0000
0000
0000
0cc0
1980
1980
1b00
1a00
0c00
0c00
0000
0000
ENDCHAR
STARTCHAR   77
ENCODING 119
SWIDTH 960 0
DWIDTH 7 0
BBX 11 14 -2 -2
BITMAP
0000
0000
0000
0000
0000
0cc0
1980
1a80
1b00
1d00
1a00
1a00
0000
0000
ENDCHAR
STARTCHAR   78
ENCODING 120
SWIDTH 960 0
DWIDTH 7 0
BBX 11 14 -2 -2
BITMAP
0000
0000
0000
0000
0000
18c0
1980
1b00
0e00
1a00
3600
6300
0000
0000
ENDCHAR
STARTCHAR   79
ENCODING 121
SWIDTH 960 0
DWIDTH 7 0
BBX 11 14 -2 -2
BITMAP
0000
0000
0000
0000
0000
1980
1980
1b00
1a00
1a00
0c00
1800
3000
e000
ENDCHAR
STARTCHAR   7a
ENCODING 122
SWIDTH 960 0
DWIDTH 7 0
BBX 11 14 -2 -2
BITMAP
0000
0000
0000
0000
0000
1fc0
0300
0600
0c00
1800
3000
7f00
0000
0000
ENDCHAR
STARTCHAR   7b
ENCODING 123
SWIDTH 960 0
DWIDTH 7 0
BBX 11 14 -2 -2
BITMAP
0000
00e0
0180
0300
0300
0300
0600
0c00
0c00
0c00
0c00
0c00
0c00
0600
ENDCHAR
STARTCHAR   7c
ENCODING 124
SWIDTH 960 0
DWIDTH 7 0
BBX 11 14 -2 -2
BITMAP
0000
0180
0180
0300
0300
0300
0600
0600
0600
0c00
0c00
0c00
1800
1800
ENDCHAR
STARTCHAR   7d
ENCODING 125
SWIDTH 960 0
DWIDTH 7 0
BBX 11 14 -2 -2
BITMAP
0000
0600
0300
0300
0300
0300
0300
0300
0600
0c00
0c00
0c00
1800
7000
ENDCHAR
STARTCHAR   7e
ENCODING 126
SWIDTH 960 0
DWIDTH 7 0
BBX 11 14 -2 -2
BITMAP
0000
0600
0d60
1b40
0180
0000
0000
0000
0000
0000
0000
0000
0000
0000
ENDCHAR
STARTCHAR   a1
ENCODING 161
SWIDTH 960 0
DWIDTH 7 0
BBX 11 14 -2 -2
BITMAP
0000
0000
0180
0300
0000
0300
0600
0600
0600
0c00
0c00
0c00
0000
0000
ENDCHAR
STARTCHAR   a2
ENCODING 162
SWIDTH 960 0
DWIDTH 7 0
BBX 11 14 -2 -2
BITMAP
0000
0000
0000
0000
0600
0f00
1d80
3400
3400
6800
6b00
3e00
3000
0000
ENDCHAR
STARTCHAR   a3
ENCODING 163
SWIDTH 960 0
DWIDTH 7 0
BBX 11 14 -2 -2
BITMAP
0000
0000
0000
0380
06c0
0600
0c00
1f00
0c00
1800
3e00
1b00
0000
0000
ENDCHAR
STARTCHAR   a4
ENCODING 164
SWIDTH 960 0
DWIDTH 7 0
BBX 11 14 -2 -2
BITMAP
0000
0000
0000
0000
18c0
1f80
1b00
1b00
3f00
6300
0000
0000
0000
0000
ENDCHAR
STARTCHAR   a5
ENCODING 165
SWIDTH 960 0
DWIDTH 7 0
BBX 11 14 -2 -2
BITMAP
0000
0000
0660
06c0
0680
0300
1f80
0600
1f80
0c00
0c00
0c00
0000
0000
ENDCHAR
STARTCHAR   a6
ENCODING 166
SWIDTH 960 0
DWIDTH 7 0
BBX 11 14 -2 -2
BITMAP
0000
0000
0180
0300
0300
0300
0000
0000
0600
0c00
0c00
0c00
0000
0000
ENDCHAR
STARTCHAR   a7
ENCODING 167
SWIDTH 960 0
DWIDTH 7 0
BBX 11 14 -2 -2
BITMAP
0000
07c0
0c60
0c00
0700
1d80
3180
1b00
0c00
0600
6300
3e00
0000
0000
ENDCHAR
STARTCHAR   a8
ENCODING 168
SWIDTH 960 0
DWIDTH 7 0
BBX 11 14 -2 -2
BITMAP
0000
06c0
06c0
0000
0000
0000
0000
0000
0000
0000
0000
0000
0000
0000
ENDCHAR
STARTCHAR   a9
ENCODING 169
SWIDTH 960 0
DWIDTH 7 0
BBX 11 14 -2 -2
BITMAP
0000
07c0
0cc0
1b40
1dc0
1cc0
3980
3980
3b80
6d00
6300
3e00
0000
0000
ENDCHAR
STARTCHAR   aa
ENCODING 170
SWIDTH 960 0
DWIDTH 7 0
BBX 11 14 -2 -2
BITMAP
0000
03c0
0660
07c0
0cc0
0dc0
0680
0000
1f80
0000
0000
0000
0000
0000
ENDCHAR
STARTCHAR   ab
ENCODING 171
SWIDTH 960 0
DWIDTH 7 0
BBX 11 14 -2 -2
BITMAP
0000
0000
0000
0000
0000
0740
0d00
1a00
3c00
3400
1a00
0d00
0000
0000
ENDCHAR
STARTCHAR   ac
ENCODING 172
SWIDTH 960 0
DWIDTH 7 0
BBX 11 14 -2 -2
BITMAP
0000
0000
0000
0000
0000
0000
0000
0000
1f80
0300
0300
0300
0000
0000
ENDCHAR
STARTCHAR   ad
ENCODING 173
SWIDTH 960 0
DWIDTH 7 0
BBX 11 14 -2 -2
BITMAP
0000
0000
0000
0000
0000
0000
0000
1f00
0000
0000
0000
0000
0000
0000
ENDCHAR
STARTCHAR   ae
ENCODING 174
SWIDTH 960 0
DWIDTH 7 0
BBX 11 14 -2 -2
BITMAP
0000
07c0
0cc0
1f40
1dc0
1dc0
3e80
3b80
3b80
7700
6300
3e00
0000
0000
ENDCHAR
STARTCHAR   af
ENCODING 175
SWIDTH 960 0
DWIDTH 7 0
BBX 11 14 -2 -2
BITMAP
0000
0000
07e0
0000
0000
0000
0000
0000
0000
0000
0000
0000
0000
0000
ENDCHAR
STARTCHAR   b0
ENCODING 176
SWIDTH 960 0
DWIDTH 7 0
BBX 11 14 -2 -2
BITMAP
0000
0300
0680
0680
0300
0000
0000
0000
0000
0000
0000
0000
0000
0000
ENDCHAR
STARTCHAR   b1
ENCODING 177
SWIDTH 960 0
DWIDTH 7 0
BBX 11 14 -2 -2
BITMAP
0000
0000
0000
0000
0000
0000
0600
0600
1f80
0c00
0c00
3f00
0000
0000
ENDCHAR
STARTCHAR   b2
ENCODING 178
SWIDTH 960 0
DWIDTH 7 0
BBX 11 14 -2 -2
BITMAP
0000
0300
0680
0180
0300
0600
0c00
1f00
0000
0000
0000
0000
0000
0000
ENDCHAR
STARTCHAR   b3
ENCODING 179
SWIDTH 960 0
DWIDTH 7 0
BBX 11 14 -2 -2
BITMAP
0000
0300
0680
0180
0600
0300
1b00
0e00
0000
0000
0000
0000
0000
0000
ENDCHAR
STARTCHAR   b4
ENCODING 180
SWIDTH 960 0
DWIDTH 7 0
BBX 11 14 -2 -2
BITMAP
0000
00c0
0380
0600
0000
0000
0000
0000
0000
0000
0000
0000
0000
0000
ENDCHAR
STARTCHAR   b5
ENCODING 181
SWIDTH 960 0
DWIDTH 7 0
BBX 11 14 -2 -2
BITMAP
0000
0000
0000
0000
0000
0000
1980
1980
1980
3300
3b00
3500
6000
c000
ENDCHAR
STARTCHAR   b6
ENCODING 182
SWIDTH 960 0
DWIDTH 7 0
BBX 11 14 -2 -2
BITMAP
0000
0000
03e0
0f40
0f40
0f40
1e80
0e80
0680
0d00
0d00
0d00
1a00
1a00
ENDCHAR
STARTCHAR   b7
ENCODING 183
SWIDTH 960 0
DWIDTH 7 0
BBX 11 14 -2 -2
BITMAP
0000
0000
0000
0000
0000
0000
0e00
0e00
0000
0000
0000
0000
0000
0000
ENDCHAR
STARTCHAR   b8
ENCODING 184
SWIDTH 960 0
DWIDTH 7 0
BBX 11 14 -2 -2
BITMAP
0000
0000
0000
0000
0000
0000
0000
0000
0000
0000
0000
0c00
1800
3000
ENDCHAR
STARTCHAR   b9
ENCODING 185
SWIDTH 960 0
DWIDTH 7 0
BBX 11 14 -2 -2
BITMAP
0000
0180
0380
0300
0300
0300
0600
0f00
0000
0000
0000
0000
0000
0000
ENDCHAR
STARTCHAR   ba
ENCODING 186
SWIDTH 960 0
DWIDTH 7 0
BBX 11 14 -2 -2
BITMAP
0000
0000
0380
0680
0d80
0700
0000
1f00
0000
0000
0000
0000
0000
0000
ENDCHAR
STARTCHAR   bb
ENCODING 187
SWIDTH 960 0
DWIDTH 7 0
BBX 11 14 -2 -2
BITMAP
0000
0000
0000
0000
0000
1e00
1a00
0d00
0e80
1a00
3400
6800
0000
0000
ENDCHAR
STARTCHAR   bc
ENCODING 188
SWIDTH 960 0
DWIDTH 7 0
BBX 11 14 -2 -2
BITMAP
0000
0000
0600
1cc0
0d80
0d00
0e00
0d80
1f80
3500
6f00
6300
0000
0000
ENDCHAR
STARTCHAR   bd
ENCODING 189
SWIDTH 960 0
DWIDTH 7 0
BBX 11 14 -2 -2
BITMAP
0000
0000
0600
1cc0
0d80
0d00
0e00
0d00
1f00
3300
6600
6f00
0000
0000
ENDCHAR
STARTCHAR   be
ENCODING 190
SWIDTH 960 0
DWIDTH 7 0
BBX 11 14 -2 -2
BITMAP
0000
0000
0c60
06c0
0d80
0f00
3a00
0d80
1b80
3700
6f00
0300
0000
0000
ENDCHAR
STARTCHAR   bf
ENCODING 191
SWIDTH 960 0
DWIDTH 7 0
BBX 11 14 -2 -2
BITMAP
0000
0000
0000
0600
0600
0000
0c00
0c00
0c00
1800
3000
6300
6600
3c00
ENDCHAR
STARTCHAR   c0
ENCODING 192
SWIDTH 960 0
DWIDTH 7 0
BBX 11 14 -2 -2
BITMAP
0300
0180
0000
0700
0700
0d00
1b00
1f00
3300
6300
6300
6300
0000
0000
ENDCHAR
STARTCHAR   c1
ENCODING 193
SWIDTH 960 0
DWIDTH 7 0
BBX 11 14 -2 -2
BITMAP
0180
0300
0000
0700
0700
0d00
1b00
1f00
3300
6300
6300
6300
0000
0000
ENDCHAR
STARTCHAR   c2
ENCODING 194
SWIDTH 960 0
DWIDTH 7 0
BBX 11 14 -2 -2
BITMAP
0380
06c0
0000
0700
0700
0d00
1b00
1f00
3300
6300
6300
6300
0000
0000
ENDCHAR
STARTCHAR   c3
ENCODING 195
SWIDTH 960 0
DWIDTH 7 0
BBX 11 14 -2 -2
BITMAP
0760
0dc0
0000
0700
0700
0d00
1b00
1f00
3300
6300
6300
6300
0000
0000
ENDCHAR
STARTCHAR   c4
ENCODING 196
SWIDTH 960 0
DWIDTH 7 0
BBX 11 14 -2 -2
BITMAP
0000
06c0
0000
0700
0700
0d00
1b00
1f00
3300
6300
6300
6300
0000
0000
ENDCHAR
STARTCHAR   c5
ENCODING 197
SWIDTH 960 0
DWIDTH 7 0
BBX 11 14 -2 -2
BITMAP
0000
0380
06c0
0700
0700
0d00
1b00
1f00
3300
6300
6300
6300
0000
0000
ENDCHAR
STARTCHAR   c6
ENCODING 198
SWIDTH 960 0
DWIDTH 7 0
BBX 11 14 -2 -2
BITMAP
0000
0000
03e0
0700
0d00
0d00
1f80
1a00
3600
6c00
6c00
6f00
0000
0000
ENDCHAR
STARTCHAR   c7
ENCODING 199
SWIDTH 960 0
DWIDTH 7 0
BBX 11 14 -2 -2
BITMAP
0000
0000
0780
0cc0
18c0
1800
3000
3000
3000
3300
3300
1e00
1800
3000
ENDCHAR
STARTCHAR   c8
ENCODING 200
SWIDTH 960 0
DWIDTH 7 0
BBX 11 14 -2 -2
BITMAP
0300
0180
0000
1fc0
1800
1800
3000
3f00
3000
6000
6000
7f00
0000
0000
ENDCHAR
STARTCHAR   c9
ENCODING 201
SWIDTH 960 0
DWIDTH 7 0
BBX 11 14 -2 -2
BITMAP
0180
0300
0000
1fc0
1800
1800
3000
3f00
3000
6000
6000
7f00
0000
0000
ENDCHAR
STARTCHAR   ca
ENCODING 202
SWIDTH 960 0
DWIDTH 7 0
BBX 11 14 -2 -2
BITMAP
0380
06c0
0000
1fc0
1800
1800
3000
3f00
3000
6000
6000
7f00
0000
0000
ENDCHAR
STARTCHAR   cb
ENCODING 203
SWIDTH 960 0
DWIDTH 7 0
BBX 11 14 -2 -2
BITMAP
0000
06c0
0000
1fc0
1800
1800
3000
3f00
3000
6000
6000
7f00
0000
0000
ENDCHAR
STARTCHAR   cc
ENCODING 204
SWIDTH 960 0
DWIDTH 7 0
BBX 11 14 -2 -2
BITMAP
0300
0180
0000
0780
0300
0300
0600
0600
0600
0c00
0c00
1e00
0000
0000
ENDCHAR
STARTCHAR   cd
ENCODING 205
SWIDTH 960 0
DWIDTH 7 0
BBX 11 14 -2 -2
BITMAP
00c0
0180
0000
0780
0300
0300
0600
0600
0600
0c00
0c00
1e00
0000
0000
ENDCHAR
STARTCHAR   ce
ENCODING 206
SWIDTH 960 0
DWIDTH 7 0
BBX 11 14 -2 -2
BITMAP
0180
0340
0000
0780
0300
0300
0600
0600
0600
0c00
0c00
1e00
0000
0000
ENDCHAR
STARTCHAR   cf
ENCODING 207
SWIDTH 960 0
DWIDTH 7 0
BBX 11 14 -2 -2
BITMAP
0000
0340
0000
0780
0300
0300
0600
0600
0600
0c00
0c00
1e00
0000
0000
ENDCHAR
STARTCHAR   d0
ENCODING 208
SWIDTH 960 0
DWIDTH 7 0
BBX 11 14 -2 -2
BITMAP
0000
0000
0780
0cc0
0c60
0c60
3ec0
18c0
18c0
3180
3300
3e00
0000
0000
ENDCHAR
STARTCHAR   d1
ENCODING 209
SWIDTH 960 0
DWIDTH 7 0
BBX 11 14 -2 -2
BITMAP
0760
0dc0
0000
1cc0
1cc0
1cc0
3580
3680
3680
6700
6700
6700
0000
0000
ENDCHAR
STARTCHAR   d2
ENCODING 210
SWIDTH 960 0
DWIDTH 7 0
BBX 11 14 -2 -2
BITMAP
0300
0180
0000
0f80
18c0
18c0
3180
3180
3180
6300
6300
3e00
0000
0000
ENDCHAR
STARTCHAR   d3
ENCODING 211
SWIDTH 960 0
DWIDTH 7 0
BBX 11 14 -2 -2
BITMAP
0180
0300
0000
0f80
18c0
18c0
3180
3180
3180
6300
6300
3e00
0000
0000
ENDCHAR
STARTCHAR   d4
ENCODING 212
SWIDTH 960 0
DWIDTH 7 0
BBX 11 14 -2 -2
BITMAP
0380
06c0
0000
0f80
18c0
18c0
3180
3180
3180
6300
6300
3e00
0000
0000
ENDCHAR
STARTCHAR   d5
ENCODING 213
SWIDTH 960 0
DWIDTH 7 0
BBX 11 14 -2 -2
BITMAP
0760
0dc0
0000
0f80
18c0
18c0
3180
3180
3180
6300
6300
3e00
0000
0000
ENDCHAR
STARTCHAR   d6
ENCODING 214
SWIDTH 960 0
DWIDTH 7 0
BBX 11 14 -2 -2
BITMAP
0000
06c0
0000
0f80
18c0
18c0
3180
3180
3180
6300
6300
3e00
0000
0000
ENDCHAR
STARTCHAR   d7
ENCODING 215
SWIDTH 960 0
DWIDTH 7 0
BBX 11 14 -2 -2
BITMAP
0000
0000
0000
0000
1860
0dc0
0d00
0600
1d00
3300
6180
0000
0000
0000
ENDCHAR
STARTCHAR   d8
ENCODING 216
SWIDTH 960 0
DWIDTH 7 0
BBX 11 14 -2 -2
BITMAP
0060
0060
07c0
0dc0
1b40
1ac0
3680
3580
3580
6b00
7300
3e00
6000
c000
ENDCHAR
STARTCHAR   d9
ENCODING 217
SWIDTH 960 0
DWIDTH 7 0
BBX 11 14 -2 -2
BITMAP
0300
0180
0000
18c0
18c0
18c0
3180
3180
3180
6300
6300
3e00
0000
0000
ENDCHAR
STARTCHAR   da
ENCODING 218
SWIDTH 960 0
DWIDTH 7 0
BBX 11 14 -2 -2
BITMAP
0180
0300
0000
18c0
18c0
18c0
3180
3180
3180
6300
6300
3e00
0000
0000
ENDCHAR
STARTCHAR   db
ENCODING 219
SWIDTH 960 0
DWIDTH 7 0
BBX 11 14 -2 -2
BITMAP
0380
06c0
0000
18c0
18c0
18c0
3180
3180
3180
6300
6300
3e00
0000
0000
ENDCHAR
STARTCHAR   dc
ENCODING 220
SWIDTH 960 0
DWIDTH 7 0
BBX 11 14 -2 -2
BITMAP
0000
06c0
0000
18c0
18c0
18c0
3180
3180
3180
6300
6300
3e00
0000
0000
ENDCHAR
STARTCHAR   dd
ENCODING 221
SWIDTH 960 0
DWIDTH 7 0
BBX 11 14 -2 -2
BITMAP
00c0
0180
0000
0cc0
0cc0
0d80
0d00
0600
0600
0c00
0c00
0c00
0000
0000
ENDCHAR
STARTCHAR   de
ENCODING 222
SWIDTH 960 0
DWIDTH 7 0
BBX 11 14 -2 -2
BITMAP
0000
0000
0c00
1800
1f00
1980
3180
3180
3300
7e00
6000
6000
0000
0000
ENDCHAR
STARTCHAR   df
ENCODING 223
SWIDTH 960 0
DWIDTH 7 0
BBX 11 14 -2 -2
BITMAP
0000
0000
0380
0680
0d80
0d00
1e00
1b00
1b00
3300
3300
7e00
0000
0000
ENDCHAR
STARTCHAR   e0
ENCODING 224
SWIDTH 960 0
DWIDTH 7 0
BBX 11 14 -2 -2
BITMAP
0000
0000
0300
0300
0000
1f00
3180
0780
1d80
3300
6700
3d00
0000
0000
ENDCHAR
STARTCHAR   e1
ENCODING 225
SWIDTH 960 0
DWIDTH 7 0
BBX 11 14 -2 -2
BITMAP
0000
0000
01c0
0300
0000
1f00
3180
0780
1d80
3300
6700
3d00
0000
0000
ENDCHAR
STARTCHAR   e2
ENCODING 226
SWIDTH 960 0
DWIDTH 7 0
BBX 11 14 -2 -2
BITMAP
0000
0000
0700
0d80
0000
1f00
3180
0780
1d80
3300
6700
3d00
0000
0000
ENDCHAR
STARTCHAR   e3
ENCODING 227
SWIDTH 960 0
DWIDTH 7 0
BBX 11 14 -2 -2
BITMAP
0000
0000
0f60
1980
0000
1f00
3180
0780
1d80
3300
6700
3d00
0000
0000
ENDCHAR
STARTCHAR   e4
ENCODING 228
SWIDTH 960 0
DWIDTH 7 0
BBX 11 14 -2 -2
BITMAP
0000
0000
0000
0d80
0000
1f00
3180
0780
1d80
3300
6700
3d00
0000
0000
ENDCHAR
STARTCHAR   e5
ENCODING 229
SWIDTH 960 0
DWIDTH 7 0
BBX 11 14 -2 -2
BITMAP
0000
0380
06c0
0300
0000
1f00
3180
0780
1d80
3300
6700
3d00
0000
0000
ENDCHAR
STARTCHAR   e6
ENCODING 230
SWIDTH 960 0
DWIDTH 7 0
BBX 11 14 -2 -2
BITMAP
0000
0000
0000
0000
0000
1f80
36c0
0ec0
1bc0
3400
6d80
3f00
0000
0000
ENDCHAR
STARTCHAR   e7
ENCODING 231
SWIDTH 960 0
DWIDTH 7 0
BBX 11 14 -2 -2
BITMAP
0000
0000
0000
0000
0000
0f00
1980
3000
3000
6000
6300
3e00
1800
3000
ENDCHAR
STARTCHAR   e8
ENCODING 232
SWIDTH 960 0
DWIDTH 7 0
BBX 11 14 -2 -2
BITMAP
0000
0000
0300
0300
0000
0f00
1980
3180
3f80
6000
6300
3e00
0000
0000
ENDCHAR
STARTCHAR   e9
ENCODING 233
SWIDTH 960 0
DWIDTH 7 0
BBX 11 14 -2 -2
BITMAP
0000
0000
0380
0600
0000
0f00
1980
3180
3f80
6000
6300
3e00
0000
0000
ENDCHAR
STARTCHAR   ea
ENCODING 234
SWIDTH 960 0
DWIDTH 7 0
BBX 11 14 -2 -2
BITMAP
0000
0000
0700
0d80
0000
0f00
1980
3180
3f80
6000
6300
3e00
0000
0000
ENDCHAR
STARTCHAR   eb
ENCODING 235
SWIDTH 960 0
DWIDTH 7 0
BBX 11 14 -2 -2
BITMAP
0000
0000
0000
0d80
0000
0f00
1980
3180
3f80
6000
6300
3e00
0000
0000
ENDCHAR
STARTCHAR   ec
ENCODING 236
SWIDTH 960 0
DWIDTH 7 0
BBX 11 14 -2 -2
BITMAP
0000
0000
0300
0300
0000
0700
0600
0600
0600
0c00
0c00
0c00
0000
0000
ENDCHAR
STARTCHAR   ed
ENCODING 237
SWIDTH 960 0
DWIDTH 7 0
BBX 11 14 -2 -2
BITMAP
0000
0000
01c0
0300
0000
0700
0600
0600
0600
0c00
0c00
0c00
0000
0000
ENDCHAR
STARTCHAR   ee
ENCODING 238
SWIDTH 960 0
DWIDTH 7 0
BBX 11 14 -2 -2
BITMAP
0000
0000
0700
0d80
0000
0700
0600
0600
0600
0c00
0c00
0c00
0000
0000
ENDCHAR
STARTCHAR   ef
ENCODING 239
SWIDTH 960 0
DWIDTH 7 0
BBX 11 14 -2 -2
BITMAP
0000
0000
0000
0680
0000
0700
0600
0600
0600
0c00
0c00
0c00
0000
0000
ENDCHAR
STARTCHAR   f0
ENCODING 240
SWIDTH 960 0
DWIDTH 7 0
BBX 11 14 -2 -2
BITMAP
0000
0340
0380
0680
00c0
07c0
0d80
1980
1980
3300
3300
1e00
0000
0000
ENDCHAR
STARTCHAR   f1
ENCODING 241
SWIDTH 960 0
DWIDTH 7 0
BBX 11 14 -2 -2
BITMAP
0000
0000
0f60
1980
0000
1f00
3980
3180
3180
6300
6300
6300
0000
0000
ENDCHAR
STARTCHAR   f2
ENCODING 242
SWIDTH 960 0
DWIDTH 7 0
BBX 11 14 -2 -2
BITMAP
0000
0000
0300
0300
0000
0f00
1980
3180
3180
6300
6300
3e00
0000
0000
ENDCHAR
STARTCHAR   f3
ENCODING 243
SWIDTH 960 0
DWIDTH 7 0
BBX 11 14 -2 -2
BITMAP
0000
0000
0380
0600
0000
0f00
1980
3180
3180
6300
6300
3e00
0000
0000
ENDCHAR
STARTCHAR   f4
ENCODING 244
SWIDTH 960 0
DWIDTH 7 0
BBX 11 14 -2 -2
BITMAP
0000
0000
0700
0d80
0000
0f00
1980
3180
3180
6300
6300
3e00
0000
0000
ENDCHAR
STARTCHAR   f5
ENCODING 245
SWIDTH 960 0
DWIDTH 7 0
BBX 11 14 -2 -2
BITMAP
0000
0000
0f60
1980
0000
0f00
1980
3180
3180
6300
6300
3e00
0000
0000
ENDCHAR
STARTCHAR   f6
ENCODING 246
SWIDTH 960 0
DWIDTH 7 0
BBX 11 14 -2 -2
BITMAP
0000
0000
0000
0d80
0000
0f00
1980
3180
3180
6300
6300
3e00
0000
0000
ENDCHAR
STARTCHAR   f7
ENCODING 247
SWIDTH 960 0
DWIDTH 7 0
BBX 11 14 -2 -2
BITMAP
0000
0000
0000
0000
0000
0700
0000
3f80
0000
1c00
0000
0000
0000
0000
ENDCHAR
STARTCHAR   f8
ENCODING 248
SWIDTH 960 0
DWIDTH 7 0
BBX 11 14 -2 -2
BITMAP
0000
0000
0000
00c0
0180
0f80
1a80
3680
3580
6b00
7300
3e00
6000
c000
ENDCHAR
STARTCHAR   f9
ENCODING 249
SWIDTH 960 0
DWIDTH 7 0
BBX 11 14 -2 -2
BITMAP
0000
0000
0300
0300
0000
18c0
3180
3180
3180
6300
6700
3d00
0000
0000
ENDCHAR
STARTCHAR   fa
ENCODING 250
SWIDTH 960 0
DWIDTH 7 0
BBX 11 14 -2 -2
BITMAP
0000
0000
0380
0600
0000
18c0
3180
3180
3180
6300
6700
3d00
0000
0000
ENDCHAR
STARTCHAR   fb
ENCODING 251
SWIDTH 960 0
DWIDTH 7 0
BBX 11 14 -2 -2
BITMAP
0000
0000
0700
0d80
0000
18c0
3180
3180
3180
6300
6700
3d00
0000
0000
ENDCHAR
STARTCHAR   fc
ENCODING 252
SWIDTH 960 0
DWIDTH 7 0
BBX 11 14 -2 -2
BITMAP
0000
0000
0000
0d80
0000
18c0
3180
3180
3180
6300
6700
3d00
0000
0000
ENDCHAR
STARTCHAR   fd
ENCODING 253
SWIDTH 960 0
DWIDTH 7 0
BBX 11 14 -2 -2
BITMAP
0000
0000
0380
0600
0000
1980
1980
1b00
1a00
1a00
0c00
1800
3000
e000
ENDCHAR
STARTCHAR   fe
ENCODING 254
SWIDTH 960 0
DWIDTH 7 0
BBX 11 14 -2 -2
BITMAP
0000
0000
0c00
1800
1800
1f00
3980
3180
3180
6300
7300
6e00
c000
c000
ENDCHAR
STARTCHAR   ff
ENCODING 255
SWIDTH 960 0
DWIDTH 7 0
BBX 11 14 -2 -2
BITMAP
0000
0000
0000
0d80
0000
1980
1980
1b00
1a00
1a00
0c00
1800
3000
e000
ENDCHAR
ENDFONT
